# Blender v2.79 (sub 0) OBJ File: ''
# www.blender.org
o Cube
v 0.770518 0.306112 -1.000000
v 0.589435 0.487196 1.000000
v -0.589435 0.487196 1.000000
v -0.770518 0.306112 -1.000000
v 0.678804 2.076631 -0.678803
v 0.678803 2.076631 0.678804
v -0.678804 2.076631 0.678803
v -0.678804 2.076631 -0.678804
v 0.770519 1.847149 -1.000000
v 0.589434 1.666065 1.000000
v -0.770518 1.847149 -1.000000
v -0.589435 1.666065 1.000000
v 1.000000 0.262358 -0.814273
v -0.717440 0.076631 -0.717441
v 1.000000 1.890903 -0.814272
v -1.000000 1.831996 -0.755365
v 1.000000 0.262358 0.814273
v -0.717440 0.076631 0.717440
v 0.999999 1.890903 0.814273
v -1.000000 1.831996 0.755365
v 0.717440 0.076631 -0.717440
v 0.717440 0.076631 0.717440
v 1.000000 2.076631 -0.999999
v 0.999999 2.076631 1.000001
v 1.000000 0.076631 -1.000000
v 1.000000 0.076631 1.000000
v -1.000000 0.321265 -0.755366
v -1.000000 0.321265 0.755365
v -1.000000 0.076631 1.000000
v -1.000000 0.076631 -1.000000
v -1.000000 2.076631 1.000000
v -1.000000 2.076631 -1.000000
v -0.806193 0.321265 0.755365
v -0.806192 0.321265 -0.755366
v -0.806193 1.831996 0.755365
v -0.806193 1.831996 -0.755365
v 0.678804 1.703736 -0.678803
v 0.678803 1.703736 0.678804
v -0.678804 1.703736 -0.678804
v -0.678804 1.703736 0.678803
v 0.589435 0.487196 0.368307
v -0.589435 0.487196 0.368307
v 0.589434 1.666065 0.368307
v -0.589435 1.666065 0.368306
v 0.868191 0.262358 -0.814273
v 0.868191 0.262358 0.814273
v 0.868191 1.890903 -0.814272
v 0.868190 1.890903 0.814273
v 0.717440 0.268419 -0.717440
v 0.717440 0.268419 0.717440
v -0.717440 0.268419 -0.717441
v -0.717440 0.268419 0.717440
v 0.770518 0.306112 -0.576812
v -0.770518 0.306112 -0.576812
v 0.770519 1.847149 -0.576812
v -0.770518 1.847149 -0.576812
vt 0.000000 0.000000
vt 0.000000 0.000000
vt 0.000000 0.000000
vt 0.000000 0.000000
vt 0.000000 0.000000
vt 0.000000 0.000000
vt 0.000000 0.000000
vt 0.000000 0.000000
vt 0.000000 0.000000
vt 0.000000 0.000000
vt 0.000000 0.000000
vt 0.000000 0.000000
vt 0.000000 0.000000
vt 0.000000 0.000000
vt 0.000000 0.000000
vt 0.000000 0.000000
vt 0.000000 0.000000
vt 0.000000 0.000000
vt 0.000000 0.000000
vt 0.000000 0.000000
vt 0.000000 0.000000
vt 0.000000 0.000000
vt 0.000000 0.000000
vt 0.000000 0.000000
vt 0.000000 0.000000
vt 0.000000 0.000000
vt 0.000000 0.000000
vt 0.000000 0.000000
vt 0.000000 0.000000
vt 0.000000 0.000000
vt 0.000000 0.000000
vt 0.000000 0.000000
vt 0.000000 0.000000
vt 0.000000 0.000000
vt 0.000000 0.000000
vt 0.000000 0.000000
vt 0.000000 0.000000
vt 0.000000 0.000000
vt 0.000000 0.000000
vt 0.000000 0.000000
vt 0.000000 0.000000
vt 0.000000 0.000000
vt 0.000000 0.000000
vt 0.000000 0.000000
vt 0.000000 0.000000
vt 0.000000 0.000000
vt 0.000000 0.000000
vt 0.000000 0.000000
vt 1.000000 0.000000
vt 0.000000 1.000000
vt 0.000000 0.000000
vt 0.000000 0.000000
vt 0.000000 0.000000
vt 0.000000 0.000000
vt 0.000000 0.000000
vt 0.000000 0.000000
vt 0.000000 0.000000
vt 0.000000 0.000000
vt 1.000000 1.000000
vn 1.0000 0.0000 0.0000
vn 0.0000 0.0000 -1.0000
vn 0.0000 1.0000 0.0000
vn -0.0000 -0.0000 1.0000
vn 0.0000 -1.0000 0.0000
vn -1.0000 -0.0000 -0.0000
s off
f 14/1/1 52/2/1 18/3/1
f 6/4/2 40/5/2 7/6/2
f 13/7/3 46/8/3 17/9/3
f 12/10/1 42/11/1 44/12/1
f 27/13/4 36/14/4 16/15/4
f 11/16/5 55/17/5 56/18/5
f 6/4/3 23/19/3 5/20/3
f 5/20/3 32/21/3 8/22/3
f 7/6/3 24/23/3 6/4/3
f 8/22/3 31/24/3 7/6/3
f 1/25/2 30/26/2 4/27/2
f 9/28/2 25/29/2 1/25/2
f 11/16/2 30/26/2 32/21/2
f 11/16/2 23/19/2 9/28/2
f 3/30/4 26/31/4 2/32/4
f 2/32/4 24/23/4 10/33/4
f 12/10/4 29/34/4 3/30/4
f 12/10/4 24/23/4 31/24/4
f 13/7/1 26/31/1 25/29/1
f 13/7/1 23/19/1 15/35/1
f 19/36/1 26/31/1 17/9/1
f 15/35/1 24/23/1 19/36/1
f 21/37/5 26/31/5 22/38/5
f 14/1/5 25/29/5 21/37/5
f 22/38/5 29/34/5 18/3/5
f 18/3/5 30/26/5 14/1/5
f 27/13/6 29/34/6 28/39/6
f 20/40/6 29/34/6 31/24/6
f 27/13/6 32/21/6 30/26/6
f 20/40/6 32/21/6 16/15/6
f 35/41/6 34/42/6 33/43/6
f 28/39/3 34/42/3 27/13/3
f 20/40/5 36/14/5 35/41/5
f 20/40/2 33/43/2 28/39/2
f 39/44/3 38/45/3 37/46/3
f 5/20/6 38/45/6 6/4/6
f 7/6/1 39/44/1 8/22/1
f 8/22/4 37/46/4 5/20/4
f 43/47/4 42/11/4 41/48/4
f 2/32/3 42/11/3 3/30/3
f 12/10/5 43/47/5 10/33/5
f 2/32/6 43/47/6 41/48/6
f 47/49/1 46/50/1 45/51/1
f 19/36/5 47/52/5 15/35/5
f 15/35/4 45/51/4 13/7/4
f 17/9/2 48/53/2 19/36/2
f 50/54/5 51/55/5 49/56/5
f 21/37/4 51/55/4 14/1/4
f 18/3/2 50/54/2 22/38/2
f 22/38/6 49/56/6 21/37/6
f 55/17/2 54/57/2 56/18/2
f 1/25/6 55/17/6 9/28/6
f 11/16/1 54/57/1 4/27/1
f 4/27/3 53/58/3 1/25/3
f 14/1/1 51/55/1 52/2/1
f 6/4/2 38/45/2 40/5/2
f 13/7/3 45/51/3 46/8/3
f 12/10/1 3/30/1 42/11/1
f 27/13/4 34/42/4 36/14/4
f 11/16/5 9/28/5 55/17/5
f 6/4/3 24/23/3 23/19/3
f 5/20/3 23/19/3 32/21/3
f 7/6/3 31/24/3 24/23/3
f 8/22/3 32/21/3 31/24/3
f 1/25/2 25/29/2 30/26/2
f 9/28/2 23/19/2 25/29/2
f 11/16/2 4/27/2 30/26/2
f 11/16/2 32/21/2 23/19/2
f 3/30/4 29/34/4 26/31/4
f 2/32/4 26/31/4 24/23/4
f 12/10/4 31/24/4 29/34/4
f 12/10/4 10/33/4 24/23/4
f 13/7/1 17/9/1 26/31/1
f 13/7/1 25/29/1 23/19/1
f 19/36/1 24/23/1 26/31/1
f 15/35/1 23/19/1 24/23/1
f 21/37/5 25/29/5 26/31/5
f 14/1/5 30/26/5 25/29/5
f 22/38/5 26/31/5 29/34/5
f 18/3/5 29/34/5 30/26/5
f 27/13/6 30/26/6 29/34/6
f 20/40/6 28/39/6 29/34/6
f 27/13/6 16/15/6 32/21/6
f 20/40/6 31/24/6 32/21/6
f 35/41/6 36/14/6 34/42/6
f 28/39/3 33/43/3 34/42/3
f 20/40/5 16/15/5 36/14/5
f 20/40/2 35/41/2 33/43/2
f 39/44/3 40/5/3 38/45/3
f 5/20/6 37/46/6 38/45/6
f 7/6/1 40/5/1 39/44/1
f 8/22/4 39/44/4 37/46/4
f 43/47/4 44/12/4 42/11/4
f 2/32/3 41/48/3 42/11/3
f 12/10/5 44/12/5 43/47/5
f 2/32/6 10/33/6 43/47/6
f 47/49/1 48/59/1 46/50/1
f 19/36/5 48/53/5 47/52/5
f 15/35/4 47/52/4 45/51/4
f 17/9/2 46/8/2 48/53/2
f 50/54/5 52/2/5 51/55/5
f 21/37/4 49/56/4 51/55/4
f 18/3/2 52/2/2 50/54/2
f 22/38/6 50/54/6 49/56/6
f 55/17/2 53/58/2 54/57/2
f 1/25/6 53/58/6 55/17/6
f 11/16/1 56/18/1 54/57/1
f 4/27/3 54/57/3 53/58/3
